<?xml version="1.0" standalone="no"?>
<!DOCTYPE svg PUBLIC "-//W3C//DTD SVG 20010904//EN"
 "http://www.w3.org/TR/2001/REC-SVG-20010904/DTD/svg10.dtd">
<svg version="1.0" xmlns="http://www.w3.org/2000/svg"
 width="512.000000pt" height="512.000000pt" viewBox="0 0 512.000000 512.000000"
 preserveAspectRatio="xMidYMid meet">
<metadata>
Created by potrace 1.14, written by Peter Selinger 2001-2017
</metadata>
<g transform="translate(0.000000,512.000000) scale(0.100000,-0.100000)"
fill="#000000" stroke="none">
<path d="M525 5105 c-128 -28 -239 -89 -329 -179 -75 -75 -125 -156 -163 -261
l-28 -80 0 -665 0 -665 28 -80 c76 -215 233 -365 452 -432 56 -17 109 -18 725
-18 l665 0 73 27 c106 39 177 83 257 163 80 80 124 151 163 257 l27 73 0 675
0 675 -27 73 c-38 106 -83 177 -163 257 -78 78 -167 134 -265 168 -64 22 -73
22 -710 24 -507 1 -658 -1 -705 -12z"/>
<path d="M3245 5105 c-128 -28 -239 -89 -329 -179 -75 -75 -125 -156 -163
-261 l-28 -80 0 -665 0 -665 28 -80 c76 -215 233 -365 452 -432 56 -17 109
-18 725 -18 l665 0 73 27 c106 39 177 83 257 163 80 80 124 151 163 257 l27
73 0 675 0 675 -27 73 c-38 106 -83 177 -163 257 -78 78 -167 134 -265 168
-64 22 -73 22 -710 24 -507 1 -658 -1 -705 -12z"/>
<path d="M525 2385 c-128 -28 -239 -89 -329 -179 -75 -75 -125 -156 -163 -261
l-28 -80 0 -665 0 -665 28 -80 c76 -215 233 -365 452 -432 56 -17 109 -18 725
-18 l665 0 73 27 c106 39 177 83 257 163 80 80 124 151 163 257 l27 73 0 675
0 675 -27 73 c-38 106 -83 177 -163 257 -78 78 -167 134 -265 168 -64 22 -73
22 -710 24 -507 1 -658 -1 -705 -12z"/>
<path d="M3705 2380 c-490 -98 -857 -457 -961 -940 -14 -62 -18 -127 -18 -240
0 -223 32 -360 132 -555 200 -390 620 -645 1061 -645 327 0 613 119 847 354
233 233 354 521 354 846 0 325 -120 613 -354 846 -237 237 -523 356 -855 353
-68 0 -153 -8 -206 -19z"/>
</g>
</svg>
